<svg xmlns:xlink="http://www.w3.org/1999/xlink" viewBox="0 0 19 20" fill="none" xmlns="http://www.w3.org/2000/svg" width="19"  height="20" >
                        <path fill-rule="evenodd" clip-rule="evenodd" d="M4.56388 11.3582H14.0965L18.3303 18.348L17.3341 19L13.4466 12.5818H5.21382L1.32629 19L0.330078 18.348L4.56388 11.3582Z" fill="currentColor" stroke="#000000" stroke-width="0.5px"></path>
                        <path fill-rule="evenodd" clip-rule="evenodd" d="M9.26621 8.30881C10.9466 8.30881 12.3088 6.94659 12.3088 5.26621C12.3088 3.58583 10.9466 2.2236 9.26621 2.2236C7.58583 2.2236 6.2236 3.58583 6.2236 5.26621C6.2236 6.94659 7.58583 8.30881 9.26621 8.30881ZM9.26621 9.53242C11.6224 9.53242 13.5324 7.62237 13.5324 5.26621C13.5324 2.91005 11.6224 1 9.26621 1C6.91005 1 5 2.91005 5 5.26621C5 7.62237 6.91005 9.53242 9.26621 9.53242Z" fill="currentColor" stroke="#000000" stroke-width="0.5px"></path>
                    </svg>