<svg xmlns:xlink="http://www.w3.org/1999/xlink" viewBox="0 0 21 20" fill="none" xmlns="http://www.w3.org/2000/svg" width="21"  height="20" >
                        <path fill-rule="evenodd" clip-rule="evenodd" d="M9.25518 3.28433C7.13975 1.1689 4.03229 0.00326329 1.91671 2.11869C-0.198876 4.23411 -0.198719 7.69551 1.91671 9.81109L10.2156 19L18.4125 9.81109C20.5285 7.69546 20.5283 4.23427 18.4129 2.11869C16.2975 0.00326329 13.2923 1.1689 11.1767 3.28433L10.2159 4.24508L9.25518 3.28433ZM11.9761 4.08377L10.2159 5.84392L8.45576 4.08375C7.50412 3.13211 6.38074 2.45067 5.33975 2.21834C4.3449 1.99632 3.45524 2.17904 2.71609 2.91813C1.04211 4.59199 1.04214 7.33757 2.71615 9.0117L2.73647 9.03202L10.2104 17.3075L17.5903 9.03442L17.6131 9.0116C19.2875 7.33751 19.2874 4.59218 17.6134 2.91808C16.8691 2.17371 16.0034 1.9993 15.0458 2.21729C14.0347 2.44745 12.935 3.12495 11.9761 4.08377C11.9761 4.08377 11.9761 4.08378 11.9761 4.08377Z" fill="currentColor"></path>
                        <path d="M11.9761 4.08377C12.935 3.12495 14.0347 2.44745 15.0458 2.21729C16.0034 1.9993 16.8691 2.17371 17.6134 2.91808C19.2874 4.59218 19.2875 7.33751 17.6131 9.0116L17.5903 9.03442L10.2104 17.3075L2.73647 9.03202L2.71615 9.0117C1.04214 7.33757 1.04211 4.59199 2.71609 2.91813C3.45524 2.17904 4.3449 1.99632 5.33975 2.21834C6.38074 2.45067 7.50412 3.13211 8.45576 4.08375L10.2159 5.84392L11.9761 4.08377ZM11.9761 4.08377C11.9761 4.08377 11.9761 4.08378 11.9761 4.08377ZM9.25518 3.28433C7.13975 1.1689 4.03229 0.00326332 1.91671 2.11869C-0.198876 4.23411 -0.198719 7.69551 1.91671 9.81109L10.2156 19L18.4125 9.81109C20.5285 7.69546 20.5283 4.23427 18.4129 2.11869C16.2975 0.00326332 13.2923 1.1689 11.1767 3.28433L10.2159 4.24508L9.25518 3.28433Z" stroke="#000000" stroke-width="0.5px" fill="none"></path>
                    </svg>