<svg xmlns:xlink="http://www.w3.org/1999/xlink" class="icon" viewBox="0 0 17 17" fill="none" xmlns="http://www.w3.org/2000/svg" width="17"  height="17" >
                    <path d="M16.1477 16.0077L11.9646 11.9146C14.4206 9.33638 14.3666 5.26973 11.8027 2.74469C9.18479 0.166485 4.94756 0.166485 2.32964 2.74469C-0.288267 5.32289 -0.288267 9.49585 2.32964 12.0741C3.62506 13.3498 5.35234 14.0143 7.07962 14.0143C8.61808 14.0143 10.1563 13.5092 11.3979 12.4727L15.5812 16.5926L16.1477 16.0077ZM2.92322 11.5157C0.629082 9.2564 0.629082 5.56196 2.92322 3.30271C4.08364 2.15989 5.56808 1.60163 7.0794 1.60163C8.59072 1.60163 10.1021 2.15989 11.2356 3.30271C13.5297 5.56205 13.5297 9.2565 11.2356 11.5157C8.94163 13.7751 5.21727 13.7751 2.92322 11.5157Z" fill="black" stroke="#000000" stroke-width="0.3px"></path>
                </svg>